<svg width="22" height="22" viewBox="0 0 22 22" fill="none" xmlns="http://www.w3.org/2000/svg">
<path d="M20.8106 8.965L17.9162 8.13312L19.3806 5.5C19.4526 5.36942 19.4801 5.21898 19.459 5.07139C19.4379 4.92381 19.3694 4.78709 19.2638 4.68187L17.3181 2.73625C17.2138 2.62917 17.077 2.55963 16.929 2.53849C16.781 2.51735 16.6301 2.54579 16.5 2.61937L13.8669 4.08375L13.035 1.18938C12.995 1.04506 12.9088 0.917846 12.7896 0.827201C12.6704 0.736557 12.5248 0.687485 12.375 0.6875H9.625C9.47525 0.687485 9.32962 0.736557 9.21041 0.827201C9.09121 0.917846 9.00501 1.04506 8.965 1.18938L8.13312 4.08375L5.5 2.61937C5.36986 2.54579 5.21903 2.51735 5.07103 2.53849C4.92304 2.55963 4.7862 2.62917 4.68187 2.73625L2.73625 4.68187C2.63062 4.78709 2.56209 4.92381 2.54101 5.07139C2.51992 5.21898 2.54743 5.36942 2.61937 5.5L4.08375 8.13312L1.18938 8.965C1.04506 9.00501 0.917846 9.09121 0.827201 9.21041C0.736557 9.32962 0.687485 9.47525 0.6875 9.625V12.375C0.687485 12.5248 0.736557 12.6704 0.827201 12.7896C0.917846 12.9088 1.04506 12.995 1.18938 13.035L4.08375 13.8669L2.61937 16.5C2.54743 16.6306 2.51992 16.781 2.54101 16.9286C2.56209 17.0762 2.63062 17.2129 2.73625 17.3181L4.68187 19.2638C4.7862 19.3708 4.92304 19.4404 5.07103 19.4615C5.21903 19.4827 5.36986 19.4542 5.5 19.3806L8.13312 17.9162L8.965 20.8106C9.00501 20.9549 9.09121 21.0822 9.21041 21.1728C9.32962 21.2634 9.47525 21.3125 9.625 21.3125H12.375C12.5248 21.3125 12.6704 21.2634 12.7896 21.1728C12.9088 21.0822 12.995 20.9549 13.035 20.8106L13.8669 17.9162L16.5 19.3806C16.6301 19.4542 16.781 19.4827 16.929 19.4615C17.077 19.4404 17.2138 19.3708 17.3181 19.2638L19.2638 17.3181C19.3694 17.2129 19.4379 17.0762 19.459 16.9286C19.4801 16.781 19.4526 16.6306 19.3806 16.5L17.9162 13.8669L20.8106 13.035C20.9549 12.995 21.0822 12.9088 21.1728 12.7896C21.2634 12.6704 21.3125 12.5248 21.3125 12.375V9.625C21.3125 9.47525 21.2634 9.32962 21.1728 9.21041C21.0822 9.09121 20.9549 9.00501 20.8106 8.965V8.965ZM14.4375 11C14.4375 11.6799 14.2359 12.3445 13.8582 12.9098C13.4805 13.4751 12.9436 13.9157 12.3155 14.1758C11.6874 14.436 10.9962 14.5041 10.3294 14.3714C9.66257 14.2388 9.05006 13.9114 8.56932 13.4307C8.08858 12.9499 7.76119 12.3374 7.62855 11.6706C7.49591 11.0038 7.56399 10.3126 7.82416 9.68453C8.08434 9.0564 8.52493 8.51954 9.09023 8.14182C9.65552 7.76411 10.3201 7.5625 11 7.5625C11.9116 7.56283 12.7857 7.9251 13.4303 8.56968C14.0749 9.21427 14.4372 10.0884 14.4375 11V11Z" fill="white"/>
</svg>
